<svg xmlns="http://www.w3.org/2000/svg" xmlns:xlink="http://www.w3.org/1999/xlink" version="1.1" x="0px" y="0px" viewBox="38 55 24 30" enable-background="new 0 0 100 100" xml:space="preserve">
  <g>
    <path d="M50,55.8c-6.6,0-12,1.3-12,2.9l3.4,23.3c0,1.6,3.8,2.9,8.6,2.9s8.6-1.3,8.6-2.9L62,58.6C62,57,56.6,55.8,50,55.8z M50,57.3   c5,0,8.4,0.7,9.9,1.3c-1.4,0.6-4.9,1.3-9.9,1.3s-8.4-0.7-9.9-1.3C41.6,58,45,57.3,50,57.3z M57.1,79.7c-0.4,0.5-2.9,1.5-7.1,1.5   s-6.6-1-7.1-1.5l-3.2-19.6c3.5,1.1,8.9,1.4,10.3,1.4s6.5-0.2,10-1.3L57.1,79.7z"/>
  </g>
</svg>
